STARTFONT 2.1
FONT -Fondu-Espy Serif Bold-Medium-R-Normal--10-100-75-75-P-72-MacRoman-1
SIZE 10 75 75
FONTBOUNDINGBOX 15 13 -1 -2
COMMENT Created by Fondu from a mac NFNT/FONT resource
STARTPROPERTIES 17
FOUNDRY "Fondu"
FAMILY_NAME "Espy Serif Bold"
WEIGHT_NAME "Medium"
SLANT "R"
SETWIDTH_NAME "Normal"
ADD_STYLE_NAME ""
PIXEL_SIZE 10
POINT_SIZE 100
RESOLUTION_X 75
RESOLUTION_Y 75
SPACING "P"
AVERAGE_WIDTH 72
CHARSET_REGISTRY "MacRoman"
CHARSET_ENCODING "1"
FONT_ASCENT 11
FONT_DESCENT 2
FACE_NAME "Espy Serif Bold 10"
ENDPROPERTIES
CHARS 227
STARTCHAR Eth
ENCODING 1
SWIDTH 0 0
DWIDTH 0 0
BBX 0 0 -1 -2
BITMAP
ENDCHAR
STARTCHAR eth
ENCODING 2
SWIDTH 0 0
DWIDTH 0 0
BBX 0 0 -1 -2
BITMAP
ENDCHAR
STARTCHAR lslash
ENCODING 4
SWIDTH 0 0
DWIDTH 0 0
BBX 0 0 -1 -2
BITMAP
ENDCHAR
STARTCHAR space
ENCODING 32
SWIDTH 300 0
DWIDTH 3 0
BBX 0 0 -1 -2
BITMAP
ENDCHAR
STARTCHAR exclam
ENCODING 33
SWIDTH 500 0
DWIDTH 5 0
BBX 2 8 1 0
BITMAP
C0
C0
C0
C0
C0
00
C0
C0
ENDCHAR
STARTCHAR quotedbl
ENCODING 34
SWIDTH 400 0
DWIDTH 4 0
BBX 3 3 0 6
BITMAP
A0
A0
A0
ENDCHAR
STARTCHAR numbersign
ENCODING 35
SWIDTH 1000 0
DWIDTH 10 0
BBX 9 8 0 0
BITMAP
1B00
1B00
7F80
3600
3600
FF00
6C00
6C00
ENDCHAR
STARTCHAR dollar
ENCODING 36
SWIDTH 600 0
DWIDTH 6 0
BBX 5 9 0 -1
BITMAP
20
70
C8
E0
70
38
98
70
20
ENDCHAR
STARTCHAR percent
ENCODING 37
SWIDTH 1100 0
DWIDTH 11 0
BBX 10 8 0 0
BITMAP
7180
DB00
DE00
7400
0B80
1EC0
36C0
6380
ENDCHAR
STARTCHAR ampersand
ENCODING 38
SWIDTH 1000 0
DWIDTH 10 0
BBX 9 8 0 0
BITMAP
3800
6C00
6C00
3B80
7900
CE00
C700
7D80
ENDCHAR
STARTCHAR quotesingle
ENCODING 39
SWIDTH 200 0
DWIDTH 2 0
BBX 1 3 0 6
BITMAP
80
80
80
ENDCHAR
STARTCHAR parenleft
ENCODING 40
SWIDTH 500 0
DWIDTH 5 0
BBX 4 10 0 -1
BITMAP
30
60
60
C0
C0
C0
C0
60
60
30
ENDCHAR
STARTCHAR parenright
ENCODING 41
SWIDTH 500 0
DWIDTH 5 0
BBX 4 10 0 -1
BITMAP
C0
60
60
30
30
30
30
60
60
C0
ENDCHAR
STARTCHAR asterisk
ENCODING 42
SWIDTH 600 0
DWIDTH 6 0
BBX 5 5 0 3
BITMAP
50
20
F8
20
50
ENDCHAR
STARTCHAR plus
ENCODING 43
SWIDTH 600 0
DWIDTH 6 0
BBX 5 5 0 1
BITMAP
20
20
F8
20
20
ENDCHAR
STARTCHAR comma
ENCODING 44
SWIDTH 400 0
DWIDTH 4 0
BBX 2 4 1 -2
BITMAP
C0
C0
40
80
ENDCHAR
STARTCHAR hyphen
ENCODING 45
SWIDTH 400 0
DWIDTH 4 0
BBX 3 1 0 3
BITMAP
E0
ENDCHAR
STARTCHAR period
ENCODING 46
SWIDTH 400 0
DWIDTH 4 0
BBX 2 2 1 0
BITMAP
C0
C0
ENDCHAR
STARTCHAR slash
ENCODING 47
SWIDTH 600 0
DWIDTH 6 0
BBX 6 10 0 -1
BITMAP
0C
08
18
10
30
20
60
40
C0
80
ENDCHAR
STARTCHAR zero
ENCODING 48
SWIDTH 700 0
DWIDTH 7 0
BBX 6 8 0 0
BITMAP
78
CC
CC
CC
CC
CC
CC
78
ENDCHAR
STARTCHAR one
ENCODING 49
SWIDTH 700 0
DWIDTH 7 0
BBX 4 8 1 0
BITMAP
60
E0
60
60
60
60
60
F0
ENDCHAR
STARTCHAR two
ENCODING 50
SWIDTH 700 0
DWIDTH 7 0
BBX 6 8 0 0
BITMAP
78
CC
0C
18
30
60
C4
FC
ENDCHAR
STARTCHAR three
ENCODING 51
SWIDTH 700 0
DWIDTH 7 0
BBX 6 8 0 0
BITMAP
78
CC
0C
38
0C
0C
CC
78
ENDCHAR
STARTCHAR four
ENCODING 52
SWIDTH 700 0
DWIDTH 7 0
BBX 6 8 0 0
BITMAP
18
30
68
D8
98
FC
18
18
ENDCHAR
STARTCHAR five
ENCODING 53
SWIDTH 700 0
DWIDTH 7 0
BBX 6 8 0 0
BITMAP
F8
C0
C0
F8
0C
0C
CC
78
ENDCHAR
STARTCHAR six
ENCODING 54
SWIDTH 700 0
DWIDTH 7 0
BBX 6 8 0 0
BITMAP
38
60
C0
F8
CC
CC
CC
78
ENDCHAR
STARTCHAR seven
ENCODING 55
SWIDTH 700 0
DWIDTH 7 0
BBX 6 8 0 0
BITMAP
FC
CC
0C
18
18
30
30
30
ENDCHAR
STARTCHAR eight
ENCODING 56
SWIDTH 700 0
DWIDTH 7 0
BBX 6 8 0 0
BITMAP
78
CC
CC
78
CC
CC
CC
78
ENDCHAR
STARTCHAR nine
ENCODING 57
SWIDTH 700 0
DWIDTH 7 0
BBX 6 8 0 0
BITMAP
78
CC
CC
CC
7C
0C
18
70
ENDCHAR
STARTCHAR colon
ENCODING 58
SWIDTH 400 0
DWIDTH 4 0
BBX 2 6 1 0
BITMAP
C0
C0
00
00
C0
C0
ENDCHAR
STARTCHAR semicolon
ENCODING 59
SWIDTH 400 0
DWIDTH 4 0
BBX 2 8 1 -2
BITMAP
C0
C0
00
00
C0
C0
40
80
ENDCHAR
STARTCHAR less
ENCODING 60
SWIDTH 600 0
DWIDTH 6 0
BBX 5 5 0 1
BITMAP
08
30
C0
30
08
ENDCHAR
STARTCHAR equal
ENCODING 61
SWIDTH 600 0
DWIDTH 6 0
BBX 5 3 0 2
BITMAP
F8
00
F8
ENDCHAR
STARTCHAR greater
ENCODING 62
SWIDTH 600 0
DWIDTH 6 0
BBX 5 5 0 1
BITMAP
80
60
18
60
80
ENDCHAR
STARTCHAR question
ENCODING 63
SWIDTH 700 0
DWIDTH 7 0
BBX 6 8 0 0
BITMAP
78
CC
0C
18
30
00
30
30
ENDCHAR
STARTCHAR at
ENCODING 64
SWIDTH 1000 0
DWIDTH 10 0
BBX 10 8 0 -1
BITMAP
3F00
6180
CCC0
D6C0
D6C0
DB80
6000
3C00
ENDCHAR
STARTCHAR A
ENCODING 65
SWIDTH 900 0
DWIDTH 9 0
BBX 10 8 -1 0
BITMAP
0C00
0C00
1E00
1600
2300
3F00
4180
E3C0
ENDCHAR
STARTCHAR B
ENCODING 66
SWIDTH 900 0
DWIDTH 9 0
BBX 8 8 0 0
BITMAP
FC
66
66
7C
66
63
63
FE
ENDCHAR
STARTCHAR C
ENCODING 67
SWIDTH 900 0
DWIDTH 9 0
BBX 8 8 0 0
BITMAP
3D
63
C1
C0
C0
C0
61
3E
ENDCHAR
STARTCHAR D
ENCODING 68
SWIDTH 1000 0
DWIDTH 10 0
BBX 9 8 0 0
BITMAP
FE00
6300
6180
6180
6180
6180
6300
FE00
ENDCHAR
STARTCHAR E
ENCODING 69
SWIDTH 800 0
DWIDTH 8 0
BBX 7 8 0 0
BITMAP
FE
62
60
7C
60
60
62
FE
ENDCHAR
STARTCHAR F
ENCODING 70
SWIDTH 800 0
DWIDTH 8 0
BBX 7 8 0 0
BITMAP
FE
62
60
7C
60
60
60
F0
ENDCHAR
STARTCHAR G
ENCODING 71
SWIDTH 1000 0
DWIDTH 10 0
BBX 9 8 0 0
BITMAP
3D00
6300
C100
C000
C780
C300
6300
3E00
ENDCHAR
STARTCHAR H
ENCODING 72
SWIDTH 1100 0
DWIDTH 11 0
BBX 10 8 0 0
BITMAP
F3C0
6180
6180
7F80
6180
6180
6180
F3C0
ENDCHAR
STARTCHAR I
ENCODING 73
SWIDTH 500 0
DWIDTH 5 0
BBX 4 8 0 0
BITMAP
F0
60
60
60
60
60
60
F0
ENDCHAR
STARTCHAR J
ENCODING 74
SWIDTH 500 0
DWIDTH 5 0
BBX 5 10 -1 -2
BITMAP
78
30
30
30
30
30
30
30
30
E0
ENDCHAR
STARTCHAR K
ENCODING 75
SWIDTH 1000 0
DWIDTH 10 0
BBX 9 8 0 0
BITMAP
F380
6600
6C00
7800
7C00
6E00
6700
F380
ENDCHAR
STARTCHAR L
ENCODING 76
SWIDTH 800 0
DWIDTH 8 0
BBX 7 8 0 0
BITMAP
F0
60
60
60
60
60
62
FE
ENDCHAR
STARTCHAR M
ENCODING 77
SWIDTH 1300 0
DWIDTH 13 0
BBX 12 8 0 0
BITMAP
F0F0
70E0
5960
5960
4E60
4E60
4460
E4F0
ENDCHAR
STARTCHAR N
ENCODING 78
SWIDTH 1000 0
DWIDTH 10 0
BBX 9 8 0 0
BITMAP
E380
7100
7900
5D00
4F00
4700
4300
E100
ENDCHAR
STARTCHAR O
ENCODING 79
SWIDTH 1000 0
DWIDTH 10 0
BBX 9 8 0 0
BITMAP
3E00
6300
C180
C180
C180
C180
6300
3E00
ENDCHAR
STARTCHAR P
ENCODING 80
SWIDTH 800 0
DWIDTH 8 0
BBX 7 8 0 0
BITMAP
FC
66
66
66
7C
60
60
F0
ENDCHAR
STARTCHAR Q
ENCODING 81
SWIDTH 1000 0
DWIDTH 10 0
BBX 9 10 0 -2
BITMAP
3E00
6300
C180
C180
C180
C180
6300
3E00
0E00
0380
ENDCHAR
STARTCHAR R
ENCODING 82
SWIDTH 900 0
DWIDTH 9 0
BBX 8 8 0 0
BITMAP
FC
66
66
66
7C
6C
66
F7
ENDCHAR
STARTCHAR S
ENCODING 83
SWIDTH 800 0
DWIDTH 8 0
BBX 7 8 0 0
BITMAP
7A
C6
E2
78
3C
8E
C6
BC
ENDCHAR
STARTCHAR T
ENCODING 84
SWIDTH 900 0
DWIDTH 9 0
BBX 8 8 0 0
BITMAP
FF
99
18
18
18
18
18
3C
ENDCHAR
STARTCHAR U
ENCODING 85
SWIDTH 1000 0
DWIDTH 10 0
BBX 9 8 0 0
BITMAP
F380
6100
6100
6100
6100
6100
7200
3C00
ENDCHAR
STARTCHAR V
ENCODING 86
SWIDTH 900 0
DWIDTH 9 0
BBX 10 8 -1 0
BITMAP
F1C0
6080
3100
3100
1A00
1A00
0C00
0C00
ENDCHAR
STARTCHAR W
ENCODING 87
SWIDTH 1200 0
DWIDTH 12 0
BBX 13 8 -1 0
BITMAP
F7B8
6310
6310
35A0
35A0
35A0
18C0
18C0
ENDCHAR
STARTCHAR X
ENCODING 88
SWIDTH 900 0
DWIDTH 9 0
BBX 8 8 0 0
BITMAP
E3
62
34
38
1C
2C
46
C7
ENDCHAR
STARTCHAR Y
ENCODING 89
SWIDTH 700 0
DWIDTH 7 0
BBX 8 8 -1 0
BITMAP
E7
62
34
3C
18
18
18
3C
ENDCHAR
STARTCHAR Z
ENCODING 90
SWIDTH 800 0
DWIDTH 8 0
BBX 7 8 0 0
BITMAP
FE
86
0C
18
30
60
C2
FE
ENDCHAR
STARTCHAR bracketleft
ENCODING 91
SWIDTH 500 0
DWIDTH 5 0
BBX 4 10 0 -1
BITMAP
F0
C0
C0
C0
C0
C0
C0
C0
C0
F0
ENDCHAR
STARTCHAR backslash
ENCODING 92
SWIDTH 600 0
DWIDTH 6 0
BBX 6 10 0 -1
BITMAP
C0
40
60
20
30
10
18
08
0C
04
ENDCHAR
STARTCHAR bracketright
ENCODING 93
SWIDTH 500 0
DWIDTH 5 0
BBX 4 10 0 -1
BITMAP
F0
30
30
30
30
30
30
30
30
F0
ENDCHAR
STARTCHAR asciicircum
ENCODING 94
SWIDTH 600 0
DWIDTH 6 0
BBX 5 6 0 1
BITMAP
20
20
70
50
D8
88
ENDCHAR
STARTCHAR underscore
ENCODING 95
SWIDTH 600 0
DWIDTH 6 0
BBX 6 1 -1 -1
BITMAP
FC
ENDCHAR
STARTCHAR grave
ENCODING 96
SWIDTH 400 0
DWIDTH 4 0
BBX 3 2 0 6
BITMAP
C0
20
ENDCHAR
STARTCHAR a
ENCODING 97
SWIDTH 800 0
DWIDTH 8 0
BBX 7 6 0 0
BITMAP
78
8C
3C
CC
CC
76
ENDCHAR
STARTCHAR b
ENCODING 98
SWIDTH 700 0
DWIDTH 7 0
BBX 7 8 -1 0
BITMAP
E0
60
6C
76
66
66
66
5C
ENDCHAR
STARTCHAR c
ENCODING 99
SWIDTH 600 0
DWIDTH 6 0
BBX 5 6 0 0
BITMAP
78
C8
C0
C0
C8
70
ENDCHAR
STARTCHAR d
ENCODING 100
SWIDTH 800 0
DWIDTH 8 0
BBX 7 8 0 0
BITMAP
1C
0C
7C
CC
CC
CC
DC
6E
ENDCHAR
STARTCHAR e
ENCODING 101
SWIDTH 700 0
DWIDTH 7 0
BBX 6 6 0 0
BITMAP
78
CC
FC
C0
C4
78
ENDCHAR
STARTCHAR f
ENCODING 102
SWIDTH 600 0
DWIDTH 6 0
BBX 5 8 0 0
BITMAP
38
60
F8
60
60
60
60
F0
ENDCHAR
STARTCHAR g
ENCODING 103
SWIDTH 800 0
DWIDTH 8 0
BBX 7 8 0 -2
BITMAP
7A
CC
CC
78
C0
7C
C6
7C
ENDCHAR
STARTCHAR h
ENCODING 104
SWIDTH 900 0
DWIDTH 9 0
BBX 8 8 0 0
BITMAP
E0
60
6C
76
66
66
66
F7
ENDCHAR
STARTCHAR i
ENCODING 105
SWIDTH 500 0
DWIDTH 5 0
BBX 4 8 0 0
BITMAP
60
00
E0
60
60
60
60
F0
ENDCHAR
STARTCHAR j
ENCODING 106
SWIDTH 500 0
DWIDTH 5 0
BBX 4 10 -1 -2
BITMAP
30
00
70
30
30
30
30
30
30
E0
ENDCHAR
STARTCHAR k
ENCODING 107
SWIDTH 800 0
DWIDTH 8 0
BBX 7 8 0 0
BITMAP
E0
60
6E
68
70
78
6C
EE
ENDCHAR
STARTCHAR l
ENCODING 108
SWIDTH 500 0
DWIDTH 5 0
BBX 4 8 0 0
BITMAP
E0
60
60
60
60
60
60
F0
ENDCHAR
STARTCHAR m
ENCODING 109
SWIDTH 1300 0
DWIDTH 13 0
BBX 12 6 0 0
BITMAP
ECC0
7760
6660
6660
6660
F770
ENDCHAR
STARTCHAR n
ENCODING 110
SWIDTH 900 0
DWIDTH 9 0
BBX 8 6 0 0
BITMAP
EC
76
66
66
66
F7
ENDCHAR
STARTCHAR o
ENCODING 111
SWIDTH 700 0
DWIDTH 7 0
BBX 6 6 0 0
BITMAP
78
CC
CC
CC
CC
78
ENDCHAR
STARTCHAR p
ENCODING 112
SWIDTH 800 0
DWIDTH 8 0
BBX 7 8 0 -2
BITMAP
EC
76
66
66
76
6C
60
F0
ENDCHAR
STARTCHAR q
ENCODING 113
SWIDTH 700 0
DWIDTH 7 0
BBX 7 8 0 -2
BITMAP
74
CC
CC
CC
DC
6C
0C
1E
ENDCHAR
STARTCHAR r
ENCODING 114
SWIDTH 700 0
DWIDTH 7 0
BBX 6 6 0 0
BITMAP
EC
74
60
60
60
F0
ENDCHAR
STARTCHAR s
ENCODING 115
SWIDTH 600 0
DWIDTH 6 0
BBX 5 6 0 0
BITMAP
78
C8
F0
78
98
F0
ENDCHAR
STARTCHAR t
ENCODING 116
SWIDTH 600 0
DWIDTH 6 0
BBX 5 8 0 0
BITMAP
20
60
F8
60
60
60
60
38
ENDCHAR
STARTCHAR u
ENCODING 117
SWIDTH 900 0
DWIDTH 9 0
BBX 8 6 0 0
BITMAP
EE
66
66
66
6E
37
ENDCHAR
STARTCHAR v
ENCODING 118
SWIDTH 700 0
DWIDTH 7 0
BBX 8 6 -1 0
BITMAP
F7
62
34
34
18
18
ENDCHAR
STARTCHAR w
ENCODING 119
SWIDTH 1100 0
DWIDTH 11 0
BBX 12 6 -1 0
BITMAP
F670
6620
3340
3740
1980
1980
ENDCHAR
STARTCHAR x
ENCODING 120
SWIDTH 900 0
DWIDTH 9 0
BBX 8 6 0 0
BITMAP
E7
66
38
1C
66
E7
ENDCHAR
STARTCHAR y
ENCODING 121
SWIDTH 700 0
DWIDTH 7 0
BBX 8 8 -1 -2
BITMAP
E7
62
34
3C
18
18
10
60
ENDCHAR
STARTCHAR z
ENCODING 122
SWIDTH 600 0
DWIDTH 6 0
BBX 5 6 0 0
BITMAP
F8
98
30
60
C8
F8
ENDCHAR
STARTCHAR braceleft
ENCODING 123
SWIDTH 500 0
DWIDTH 5 0
BBX 4 11 0 -2
BITMAP
10
20
60
60
60
C0
60
60
60
20
10
ENDCHAR
STARTCHAR bar
ENCODING 124
SWIDTH 500 0
DWIDTH 5 0
BBX 2 11 1 -2
BITMAP
C0
C0
C0
C0
C0
C0
C0
C0
C0
C0
C0
ENDCHAR
STARTCHAR braceright
ENCODING 125
SWIDTH 500 0
DWIDTH 5 0
BBX 4 11 0 -2
BITMAP
80
40
60
60
60
30
60
60
60
40
80
ENDCHAR
STARTCHAR asciitilde
ENCODING 126
SWIDTH 700 0
DWIDTH 7 0
BBX 6 3 0 4
BITMAP
64
B4
98
ENDCHAR
STARTCHAR char007f
ENCODING 127
SWIDTH 0 0
DWIDTH 0 0
BBX 0 0 -1 -2
BITMAP
ENDCHAR
STARTCHAR Adieresis
ENCODING 128
SWIDTH 900 0
DWIDTH 9 0
BBX 10 10 -1 0
BITMAP
1200
0000
0C00
0C00
1E00
1600
2300
3F00
4180
E3C0
ENDCHAR
STARTCHAR Aring
ENCODING 129
SWIDTH 900 0
DWIDTH 9 0
BBX 10 11 -1 0
BITMAP
0C00
1200
0C00
0C00
0C00
1E00
1600
2300
3F00
4180
E3C0
ENDCHAR
STARTCHAR Ccedilla
ENCODING 130
SWIDTH 900 0
DWIDTH 9 0
BBX 8 10 0 -2
BITMAP
3D
63
C1
C0
C0
C0
61
3E
08
18
ENDCHAR
STARTCHAR Eacute
ENCODING 131
SWIDTH 800 0
DWIDTH 8 0
BBX 7 11 0 0
BITMAP
0C
10
00
FE
62
60
7C
60
60
62
FE
ENDCHAR
STARTCHAR Ntilde
ENCODING 132
SWIDTH 900 0
DWIDTH 9 0
BBX 9 11 0 0
BITMAP
1A00
2C00
0000
E380
7100
7900
5D00
4F00
4700
4300
E100
ENDCHAR
STARTCHAR Odieresis
ENCODING 133
SWIDTH 1000 0
DWIDTH 10 0
BBX 9 10 0 0
BITMAP
1200
0000
3E00
6300
C180
C180
C180
C180
6300
3E00
ENDCHAR
STARTCHAR Udieresis
ENCODING 134
SWIDTH 1000 0
DWIDTH 10 0
BBX 9 10 0 0
BITMAP
1200
0000
F380
6100
6100
6100
6100
6100
7200
3C00
ENDCHAR
STARTCHAR aacute
ENCODING 135
SWIDTH 800 0
DWIDTH 8 0
BBX 7 9 0 0
BITMAP
18
20
00
78
8C
3C
CC
CC
76
ENDCHAR
STARTCHAR agrave
ENCODING 136
SWIDTH 800 0
DWIDTH 8 0
BBX 7 9 0 0
BITMAP
60
10
00
78
8C
3C
CC
CC
76
ENDCHAR
STARTCHAR acircumflex
ENCODING 137
SWIDTH 800 0
DWIDTH 8 0
BBX 7 9 0 0
BITMAP
30
48
00
78
8C
3C
CC
CC
76
ENDCHAR
STARTCHAR adieresis
ENCODING 138
SWIDTH 800 0
DWIDTH 8 0
BBX 7 8 0 0
BITMAP
48
00
78
8C
3C
CC
CC
76
ENDCHAR
STARTCHAR atilde
ENCODING 139
SWIDTH 800 0
DWIDTH 8 0
BBX 7 9 0 0
BITMAP
34
58
00
78
8C
3C
CC
CC
76
ENDCHAR
STARTCHAR aring
ENCODING 140
SWIDTH 800 0
DWIDTH 8 0
BBX 7 9 0 0
BITMAP
30
48
30
78
8C
3C
CC
CC
76
ENDCHAR
STARTCHAR ccedilla
ENCODING 141
SWIDTH 600 0
DWIDTH 6 0
BBX 5 8 0 -2
BITMAP
78
C8
C0
C0
C8
70
20
60
ENDCHAR
STARTCHAR eacute
ENCODING 142
SWIDTH 700 0
DWIDTH 7 0
BBX 6 9 0 0
BITMAP
18
20
00
78
CC
FC
C0
C4
78
ENDCHAR
STARTCHAR egrave
ENCODING 143
SWIDTH 700 0
DWIDTH 7 0
BBX 6 9 0 0
BITMAP
60
10
00
78
CC
FC
C0
C4
78
ENDCHAR
STARTCHAR ecircumflex
ENCODING 144
SWIDTH 700 0
DWIDTH 7 0
BBX 6 9 0 0
BITMAP
30
48
00
78
CC
FC
C0
C4
78
ENDCHAR
STARTCHAR edieresis
ENCODING 145
SWIDTH 700 0
DWIDTH 7 0
BBX 6 8 0 0
BITMAP
48
00
78
CC
FC
C0
C4
78
ENDCHAR
STARTCHAR iacute
ENCODING 146
SWIDTH 500 0
DWIDTH 5 0
BBX 4 9 0 0
BITMAP
30
40
00
E0
60
60
60
60
F0
ENDCHAR
STARTCHAR igrave
ENCODING 147
SWIDTH 500 0
DWIDTH 5 0
BBX 4 9 0 0
BITMAP
C0
20
00
E0
60
60
60
60
F0
ENDCHAR
STARTCHAR icircumflex
ENCODING 148
SWIDTH 500 0
DWIDTH 5 0
BBX 4 9 0 0
BITMAP
60
90
00
E0
60
60
60
60
F0
ENDCHAR
STARTCHAR idieresis
ENCODING 149
SWIDTH 500 0
DWIDTH 5 0
BBX 4 8 0 0
BITMAP
90
00
E0
60
60
60
60
F0
ENDCHAR
STARTCHAR ntilde
ENCODING 150
SWIDTH 900 0
DWIDTH 9 0
BBX 8 9 0 0
BITMAP
34
58
00
EC
76
66
66
66
F7
ENDCHAR
STARTCHAR oacute
ENCODING 151
SWIDTH 700 0
DWIDTH 7 0
BBX 6 9 0 0
BITMAP
18
20
00
78
CC
CC
CC
CC
78
ENDCHAR
STARTCHAR ograve
ENCODING 152
SWIDTH 700 0
DWIDTH 7 0
BBX 6 9 0 0
BITMAP
60
10
00
78
CC
CC
CC
CC
78
ENDCHAR
STARTCHAR ocircumflex
ENCODING 153
SWIDTH 700 0
DWIDTH 7 0
BBX 6 9 0 0
BITMAP
30
48
00
78
CC
CC
CC
CC
78
ENDCHAR
STARTCHAR odieresis
ENCODING 154
SWIDTH 700 0
DWIDTH 7 0
BBX 6 8 0 0
BITMAP
48
00
78
CC
CC
CC
CC
78
ENDCHAR
STARTCHAR otilde
ENCODING 155
SWIDTH 700 0
DWIDTH 7 0
BBX 6 9 0 0
BITMAP
34
58
00
78
CC
CC
CC
CC
78
ENDCHAR
STARTCHAR uacute
ENCODING 156
SWIDTH 900 0
DWIDTH 9 0
BBX 8 9 0 0
BITMAP
0C
10
00
EE
66
66
66
6E
37
ENDCHAR
STARTCHAR ugrave
ENCODING 157
SWIDTH 900 0
DWIDTH 9 0
BBX 8 9 0 0
BITMAP
30
08
00
EE
66
66
66
6E
37
ENDCHAR
STARTCHAR ucircumflex
ENCODING 158
SWIDTH 900 0
DWIDTH 9 0
BBX 8 9 0 0
BITMAP
18
24
00
EE
66
66
66
6E
37
ENDCHAR
STARTCHAR udieresis
ENCODING 159
SWIDTH 900 0
DWIDTH 9 0
BBX 8 8 0 0
BITMAP
24
00
EE
66
66
66
6E
37
ENDCHAR
STARTCHAR dagger
ENCODING 160
SWIDTH 1000 0
DWIDTH 10 0
BBX 9 7 0 0
BITMAP
6300
9480
7F00
1400
7F00
9480
6300
ENDCHAR
STARTCHAR degree
ENCODING 161
SWIDTH 500 0
DWIDTH 5 0
BBX 4 4 0 5
BITMAP
60
90
90
60
ENDCHAR
STARTCHAR cent
ENCODING 162
SWIDTH 600 0
DWIDTH 6 0
BBX 5 8 0 -1
BITMAP
20
70
E8
A0
A0
E8
70
20
ENDCHAR
STARTCHAR sterling
ENCODING 163
SWIDTH 800 0
DWIDTH 8 0
BBX 7 8 0 0
BITMAP
38
64
60
F0
60
60
62
FC
ENDCHAR
STARTCHAR section
ENCODING 164
SWIDTH 1000 0
DWIDTH 10 0
BBX 9 9 0 -1
BITMAP
0800
1C00
1C00
6B00
F780
6B00
1C00
1C00
0800
ENDCHAR
STARTCHAR bullet
ENCODING 165
SWIDTH 800 0
DWIDTH 8 0
BBX 5 4 1 2
BITMAP
70
F8
F8
70
ENDCHAR
STARTCHAR paragraph
ENCODING 166
SWIDTH 800 0
DWIDTH 8 0
BBX 7 10 0 -2
BITMAP
7E
F4
F4
F4
74
14
14
14
14
36
ENDCHAR
STARTCHAR germandbls
ENCODING 167
SWIDTH 900 0
DWIDTH 9 0
BBX 8 8 0 0
BITMAP
3C
66
E6
6C
66
63
6B
EE
ENDCHAR
STARTCHAR registered
ENCODING 168
SWIDTH 800 0
DWIDTH 8 0
BBX 7 7 0 0
BITMAP
38
44
BA
B2
AA
44
38
ENDCHAR
STARTCHAR copyright
ENCODING 169
SWIDTH 800 0
DWIDTH 8 0
BBX 7 7 0 0
BITMAP
38
44
BA
A2
BA
44
38
ENDCHAR
STARTCHAR trademark
ENCODING 170
SWIDTH 1000 0
DWIDTH 10 0
BBX 9 4 0 4
BITMAP
E880
4D80
4A80
4A80
ENDCHAR
STARTCHAR acute
ENCODING 171
SWIDTH 400 0
DWIDTH 4 0
BBX 3 2 0 6
BITMAP
60
80
ENDCHAR
STARTCHAR dieresis
ENCODING 172
SWIDTH 500 0
DWIDTH 5 0
BBX 4 1 0 6
BITMAP
90
ENDCHAR
STARTCHAR notequal
ENCODING 173
SWIDTH 600 0
DWIDTH 6 0
BBX 5 5 0 1
BITMAP
10
F8
20
F8
40
ENDCHAR
STARTCHAR AE
ENCODING 174
SWIDTH 1400 0
DWIDTH 14 0
BBX 13 8 0 0
BITMAP
07F8
0D88
0980
11F0
3F80
2180
6188
F3F8
ENDCHAR
STARTCHAR Oslash
ENCODING 175
SWIDTH 1000 0
DWIDTH 10 0
BBX 9 9 0 0
BITMAP
0080
3F00
6300
C580
C980
D180
E180
6300
BE00
ENDCHAR
STARTCHAR infinity
ENCODING 176
SWIDTH 1000 0
DWIDTH 10 0
BBX 9 4 0 2
BITMAP
7300
8C80
9880
6700
ENDCHAR
STARTCHAR plusminus
ENCODING 177
SWIDTH 600 0
DWIDTH 6 0
BBX 5 6 0 1
BITMAP
20
20
F8
20
20
F8
ENDCHAR
STARTCHAR lessequal
ENCODING 178
SWIDTH 600 0
DWIDTH 6 0
BBX 5 7 0 0
BITMAP
08
30
C0
30
08
00
F8
ENDCHAR
STARTCHAR greaterequal
ENCODING 179
SWIDTH 600 0
DWIDTH 6 0
BBX 5 7 0 0
BITMAP
80
60
18
60
80
00
F8
ENDCHAR
STARTCHAR yen
ENCODING 180
SWIDTH 900 0
DWIDTH 9 0
BBX 8 8 0 0
BITMAP
F7
62
34
7E
18
7E
18
3C
ENDCHAR
STARTCHAR mu
ENCODING 181
SWIDTH 900 0
DWIDTH 9 0
BBX 8 8 0 -2
BITMAP
EE
66
66
66
6E
77
60
60
ENDCHAR
STARTCHAR partialdiff
ENCODING 182
SWIDTH 600 0
DWIDTH 6 0
BBX 5 8 0 0
BITMAP
70
18
08
78
98
88
C8
70
ENDCHAR
STARTCHAR summation
ENCODING 183
SWIDTH 800 0
DWIDTH 8 0
BBX 7 9 0 -1
BITMAP
FE
C2
60
30
18
30
62
C2
FE
ENDCHAR
STARTCHAR product
ENCODING 184
SWIDTH 1000 0
DWIDTH 10 0
BBX 9 9 0 -1
BITMAP
FF80
6300
6300
6300
6300
6300
6300
6300
F780
ENDCHAR
STARTCHAR pi
ENCODING 185
SWIDTH 800 0
DWIDTH 8 0
BBX 7 6 0 0
BITMAP
FE
6C
6C
6C
6E
EC
ENDCHAR
STARTCHAR integral
ENCODING 186
SWIDTH 400 0
DWIDTH 4 0
BBX 3 11 0 -2
BITMAP
20
40
40
40
40
40
40
40
40
40
80
ENDCHAR
STARTCHAR ordfeminine
ENCODING 187
SWIDTH 600 0
DWIDTH 6 0
BBX 5 6 0 3
BITMAP
78
D8
D8
68
00
F8
ENDCHAR
STARTCHAR ordmasculine
ENCODING 188
SWIDTH 600 0
DWIDTH 6 0
BBX 5 6 0 3
BITMAP
70
D8
D8
70
00
F8
ENDCHAR
STARTCHAR Omega
ENCODING 189
SWIDTH 900 0
DWIDTH 9 0
BBX 8 8 0 0
BITMAP
3C
66
C3
C3
C3
42
A5
E7
ENDCHAR
STARTCHAR ae
ENCODING 190
SWIDTH 1100 0
DWIDTH 11 0
BBX 10 6 0 0
BITMAP
7F80
8CC0
3FC0
CC00
CC40
7780
ENDCHAR
STARTCHAR oslash
ENCODING 191
SWIDTH 700 0
DWIDTH 7 0
BBX 6 8 0 -1
BITMAP
04
78
CC
DC
EC
CC
78
80
ENDCHAR
STARTCHAR questiondown
ENCODING 192
SWIDTH 700 0
DWIDTH 7 0
BBX 6 8 0 -2
BITMAP
30
30
00
30
60
C0
CC
78
ENDCHAR
STARTCHAR exclamdown
ENCODING 193
SWIDTH 400 0
DWIDTH 4 0
BBX 2 8 1 -2
BITMAP
C0
C0
00
C0
C0
C0
C0
C0
ENDCHAR
STARTCHAR logicalnot
ENCODING 194
SWIDTH 700 0
DWIDTH 7 0
BBX 6 3 0 1
BITMAP
FC
04
04
ENDCHAR
STARTCHAR radical
ENCODING 195
SWIDTH 600 0
DWIDTH 6 0
BBX 5 9 0 -1
BITMAP
08
08
08
10
D0
50
60
20
20
ENDCHAR
STARTCHAR florin
ENCODING 196
SWIDTH 800 0
DWIDTH 8 0
BBX 8 10 -1 -2
BITMAP
07
0C
0C
3E
18
18
30
30
30
E0
ENDCHAR
STARTCHAR approxequal
ENCODING 197
SWIDTH 700 0
DWIDTH 7 0
BBX 6 5 0 1
BITMAP
64
98
00
64
98
ENDCHAR
STARTCHAR Delta
ENCODING 198
SWIDTH 800 0
DWIDTH 8 0
BBX 7 8 0 0
BITMAP
10
10
38
38
4C
4C
86
FE
ENDCHAR
STARTCHAR guillemotleft
ENCODING 199
SWIDTH 800 0
DWIDTH 8 0
BBX 7 5 0 0
BITMAP
36
6C
D8
6C
36
ENDCHAR
STARTCHAR guillemotright
ENCODING 200
SWIDTH 800 0
DWIDTH 8 0
BBX 7 5 0 0
BITMAP
D8
6C
36
6C
D8
ENDCHAR
STARTCHAR ellipsis
ENCODING 201
SWIDTH 1300 0
DWIDTH 13 0
BBX 10 2 1 0
BITMAP
CCC0
CCC0
ENDCHAR
STARTCHAR nbspace
ENCODING 202
SWIDTH 300 0
DWIDTH 3 0
BBX 0 0 -1 -2
BITMAP
ENDCHAR
STARTCHAR Agrave
ENCODING 203
SWIDTH 900 0
DWIDTH 9 0
BBX 10 11 -1 0
BITMAP
1800
0400
0000
0C00
0C00
1E00
1600
2300
3F00
4180
E3C0
ENDCHAR
STARTCHAR Atilde
ENCODING 204
SWIDTH 900 0
DWIDTH 9 0
BBX 10 11 -1 0
BITMAP
0D00
1600
0000
0C00
0C00
1E00
1600
2300
3F00
4180
E3C0
ENDCHAR
STARTCHAR Otilde
ENCODING 205
SWIDTH 1000 0
DWIDTH 10 0
BBX 9 11 0 0
BITMAP
1A00
2C00
0000
3E00
6300
C180
C180
C180
C180
6300
3E00
ENDCHAR
STARTCHAR OE
ENCODING 206
SWIDTH 1300 0
DWIDTH 13 0
BBX 12 8 0 0
BITMAP
3FF0
6310
C300
C3E0
C300
C300
6310
3FF0
ENDCHAR
STARTCHAR oe
ENCODING 207
SWIDTH 1100 0
DWIDTH 11 0
BBX 10 6 0 0
BITMAP
7780
CCC0
CFC0
CC00
CC40
7B80
ENDCHAR
STARTCHAR endash
ENCODING 208
SWIDTH 600 0
DWIDTH 6 0
BBX 5 1 0 3
BITMAP
F8
ENDCHAR
STARTCHAR emdash
ENCODING 209
SWIDTH 1100 0
DWIDTH 11 0
BBX 10 1 0 3
BITMAP
FFC0
ENDCHAR
STARTCHAR quotedblleft
ENCODING 210
SWIDTH 600 0
DWIDTH 6 0
BBX 5 4 0 5
BITMAP
48
90
D8
D8
ENDCHAR
STARTCHAR quotedblright
ENCODING 211
SWIDTH 600 0
DWIDTH 6 0
BBX 5 4 0 5
BITMAP
D8
D8
48
90
ENDCHAR
STARTCHAR quoteleft
ENCODING 212
SWIDTH 300 0
DWIDTH 3 0
BBX 2 4 0 5
BITMAP
40
80
C0
C0
ENDCHAR
STARTCHAR quoteright
ENCODING 213
SWIDTH 300 0
DWIDTH 3 0
BBX 2 4 0 5
BITMAP
C0
C0
40
80
ENDCHAR
STARTCHAR divide
ENCODING 214
SWIDTH 600 0
DWIDTH 6 0
BBX 5 5 0 1
BITMAP
20
00
F8
00
20
ENDCHAR
STARTCHAR lozenge
ENCODING 215
SWIDTH 800 0
DWIDTH 8 0
BBX 7 8 0 0
BITMAP
10
28
44
82
82
44
28
10
ENDCHAR
STARTCHAR ydieresis
ENCODING 216
SWIDTH 700 0
DWIDTH 7 0
BBX 8 10 -1 -2
BITMAP
24
00
E7
62
34
3C
18
18
10
60
ENDCHAR
STARTCHAR Ydieresis
ENCODING 217
SWIDTH 700 0
DWIDTH 7 0
BBX 8 10 -1 0
BITMAP
24
00
E7
62
34
3C
18
18
18
3C
ENDCHAR
STARTCHAR fraction
ENCODING 218
SWIDTH 500 0
DWIDTH 5 0
BBX 6 10 -1 -2
BITMAP
0C
08
18
10
30
20
60
40
C0
80
ENDCHAR
STARTCHAR currency
ENCODING 219
SWIDTH 800 0
DWIDTH 8 0
BBX 7 7 0 0
BITMAP
BA
7C
C6
C6
C6
7C
BA
ENDCHAR
STARTCHAR guilsinglleft
ENCODING 220
SWIDTH 500 0
DWIDTH 5 0
BBX 4 5 0 0
BITMAP
30
60
C0
60
30
ENDCHAR
STARTCHAR guilsinglright
ENCODING 221
SWIDTH 500 0
DWIDTH 5 0
BBX 4 5 0 0
BITMAP
C0
60
30
60
C0
ENDCHAR
STARTCHAR fi
ENCODING 222
SWIDTH 1000 0
DWIDTH 10 0
BBX 9 8 0 0
BITMAP
3B00
6000
FF00
6300
6300
6300
6300
F780
ENDCHAR
STARTCHAR fl
ENCODING 223
SWIDTH 1000 0
DWIDTH 10 0
BBX 9 8 0 0
BITMAP
3F00
6300
FB00
6300
6300
6300
6300
F780
ENDCHAR
STARTCHAR daggerdbl
ENCODING 224
SWIDTH 900 0
DWIDTH 9 0
BBX 6 6 1 0
BITMAP
FC
FC
FC
FC
FC
FC
ENDCHAR
STARTCHAR periodcentered
ENCODING 225
SWIDTH 500 0
DWIDTH 5 0
BBX 2 2 1 3
BITMAP
C0
C0
ENDCHAR
STARTCHAR quotesinglbase
ENCODING 226
SWIDTH 400 0
DWIDTH 4 0
BBX 2 4 1 -2
BITMAP
C0
C0
40
80
ENDCHAR
STARTCHAR quotedblbase
ENCODING 227
SWIDTH 700 0
DWIDTH 7 0
BBX 5 4 1 -2
BITMAP
D8
D8
48
90
ENDCHAR
STARTCHAR perthousand
ENCODING 228
SWIDTH 1500 0
DWIDTH 15 0
BBX 14 8 0 0
BITMAP
7180
DB00
DE00
7400
0BB8
1EEC
36EC
63B8
ENDCHAR
STARTCHAR Acircumflex
ENCODING 229
SWIDTH 900 0
DWIDTH 9 0
BBX 10 11 -1 0
BITMAP
0C00
1200
0000
0C00
0C00
1E00
1600
2300
3F00
4180
E3C0
ENDCHAR
STARTCHAR Ecircumflex
ENCODING 230
SWIDTH 800 0
DWIDTH 8 0
BBX 7 11 0 0
BITMAP
18
24
00
FE
62
60
7C
60
60
62
FE
ENDCHAR
STARTCHAR Aacute
ENCODING 231
SWIDTH 900 0
DWIDTH 9 0
BBX 10 11 -1 0
BITMAP
0600
0800
0000
0C00
0C00
1E00
1600
2300
3F00
4180
E3C0
ENDCHAR
STARTCHAR Edieresis
ENCODING 232
SWIDTH 800 0
DWIDTH 8 0
BBX 7 10 0 0
BITMAP
24
00
FE
62
60
7C
60
60
62
FE
ENDCHAR
STARTCHAR Egrave
ENCODING 233
SWIDTH 800 0
DWIDTH 8 0
BBX 7 11 0 0
BITMAP
30
08
00
FE
62
60
7C
60
60
62
FE
ENDCHAR
STARTCHAR Iacute
ENCODING 234
SWIDTH 500 0
DWIDTH 5 0
BBX 4 11 0 0
BITMAP
30
40
00
F0
60
60
60
60
60
60
F0
ENDCHAR
STARTCHAR Icircumflex
ENCODING 235
SWIDTH 500 0
DWIDTH 5 0
BBX 4 11 0 0
BITMAP
60
90
00
F0
60
60
60
60
60
60
F0
ENDCHAR
STARTCHAR Idieresis
ENCODING 236
SWIDTH 500 0
DWIDTH 5 0
BBX 4 10 0 0
BITMAP
90
00
F0
60
60
60
60
60
60
F0
ENDCHAR
STARTCHAR Igrave
ENCODING 237
SWIDTH 500 0
DWIDTH 5 0
BBX 4 11 0 0
BITMAP
C0
20
00
F0
60
60
60
60
60
60
F0
ENDCHAR
STARTCHAR Oacute
ENCODING 238
SWIDTH 1000 0
DWIDTH 10 0
BBX 9 11 0 0
BITMAP
0C00
1000
0000
3E00
6300
C180
C180
C180
C180
6300
3E00
ENDCHAR
STARTCHAR Ocircumflex
ENCODING 239
SWIDTH 1000 0
DWIDTH 10 0
BBX 9 11 0 0
BITMAP
0C00
1200
0000
3E00
6300
C180
C180
C180
C180
6300
3E00
ENDCHAR
STARTCHAR apple
ENCODING 240
SWIDTH 800 0
DWIDTH 8 0
BBX 7 9 0 0
BITMAP
08
10
6C
FE
F8
F8
FE
7C
28
ENDCHAR
STARTCHAR Ograve
ENCODING 241
SWIDTH 900 0
DWIDTH 9 0
BBX 9 11 0 0
BITMAP
1800
0400
0000
3E00
6300
C180
C180
C180
C180
6300
3E00
ENDCHAR
STARTCHAR Uacute
ENCODING 242
SWIDTH 1000 0
DWIDTH 10 0
BBX 9 11 0 0
BITMAP
0600
0800
0000
F380
6100
6100
6100
6100
6100
7200
3C00
ENDCHAR
STARTCHAR Ucircumflex
ENCODING 243
SWIDTH 1000 0
DWIDTH 10 0
BBX 9 11 0 0
BITMAP
0C00
1200
0000
F380
6100
6100
6100
6100
6100
7200
3C00
ENDCHAR
STARTCHAR Ugrave
ENCODING 244
SWIDTH 1000 0
DWIDTH 10 0
BBX 9 11 0 0
BITMAP
3000
0800
0000
F380
6100
6100
6100
6100
6100
7200
3C00
ENDCHAR
STARTCHAR dotlessi
ENCODING 245
SWIDTH 500 0
DWIDTH 5 0
BBX 4 6 0 0
BITMAP
E0
60
60
60
60
F0
ENDCHAR
STARTCHAR circumflex
ENCODING 246
SWIDTH 500 0
DWIDTH 5 0
BBX 4 2 0 7
BITMAP
60
90
ENDCHAR
STARTCHAR tilde
ENCODING 247
SWIDTH 600 0
DWIDTH 6 0
BBX 5 2 0 7
BITMAP
68
B0
ENDCHAR
STARTCHAR macron
ENCODING 248
SWIDTH 400 0
DWIDTH 4 0
BBX 3 1 0 7
BITMAP
E0
ENDCHAR
STARTCHAR breve
ENCODING 249
SWIDTH 500 0
DWIDTH 5 0
BBX 4 2 0 7
BITMAP
90
60
ENDCHAR
STARTCHAR dotaccent
ENCODING 250
SWIDTH 200 0
DWIDTH 2 0
BBX 1 1 0 7
BITMAP
80
ENDCHAR
STARTCHAR ring
ENCODING 251
SWIDTH 500 0
DWIDTH 5 0
BBX 4 3 0 6
BITMAP
60
90
60
ENDCHAR
STARTCHAR cedilla
ENCODING 252
SWIDTH 400 0
DWIDTH 4 0
BBX 3 3 0 -2
BITMAP
40
20
C0
ENDCHAR
STARTCHAR hungarumlaut
ENCODING 253
SWIDTH 600 0
DWIDTH 6 0
BBX 5 2 0 7
BITMAP
48
90
ENDCHAR
STARTCHAR ogonek
ENCODING 254
SWIDTH 400 0
DWIDTH 4 0
BBX 3 3 0 -2
BITMAP
40
80
60
ENDCHAR
STARTCHAR caron
ENCODING 255
SWIDTH 400 0
DWIDTH 4 0
BBX 3 2 0 7
BITMAP
A0
40
ENDCHAR
ENDFONT
